<svg version="1.2" xmlns="http://www.w3.org/2000/svg" viewBox="0 0 250 75" width="250" height="75">
	<title>Zignuts Original Logo (Light-White)-svg</title>
	<defs>
		<linearGradient id="g1" x1="3.7" y1="17.3" x2="52.5" y2="61.3" gradientUnits="userSpaceOnUse">
			<stop offset="0" stop-color="#00bcd5"/>
			<stop offset="1" stop-color="#445fee"/>
		</linearGradient>
		<linearGradient id="g2" x1="18.3" y1="1.6" x2="64" y2="47.5" gradientUnits="userSpaceOnUse">
			<stop offset="0" stop-color="#00bcd5"/>
			<stop offset="1" stop-color="#445fee"/>
		</linearGradient>
	</defs>
	<style>
		.s0 { fill: url(#g1) } 
		.s1 { fill: url(#g2) } 
		.s2 { fill: #ffffff } 
		.s3 { fill: #1490fe } 
	</style>
	<path id="Layer" fill-rule="evenodd" class="s0" d="m18.5 10.2c0.9 0.2 23.4 4.7 37.6 35.5l0.2 0.3q0.2 0.4 0.1 0.8 0 0.4-0.3 0.7l-0.2 0.2c-0.6 0.7-13.9 15.1-22.5 16.7q-4.1 0.8-8.3 0.7c-9.1 0-20.6-1.3-21.4-1.3h-0.4q-0.3 0-0.6-0.2-0.2-0.1-0.4-0.3-0.2-0.2-0.2-0.5-0.1-0.3-0.1-0.6v-0.4c0-0.5 0.7-10.5-0.9-16.6-1-5.6-0.5-11.5 1.6-16.9 2.4-7.5 7.6-13.9 14.4-17.9h0.1q0.4-0.2 0.8-0.2zm-11.8 50c4 0.4 12 1 18.6 1q3.7 0.1 7.4-0.4c5.4-1 14.4-9.2 18.9-13.9q0.3-0.3 0.3-0.7 0.1-0.5-0.1-0.9c-4.4-9.3-11-17.5-19.2-23.8-2.1-1.6-4.6-2.7-7.2-3.2-2.6-0.4-5.3-0.3-7.8 0.5-2.6 0.7-4.9 2.1-6.8 3.9-2 1.8-3.4 4.1-4.3 6.6-0.1 0-0.1 0.2-0.1 0.2-1.8 4.7-2.3 9.7-1.5 14.7 1.1 5 1.5 10.1 1.2 15.2q0 0.3 0.2 0.5 0.2 0.2 0.5 0.3z"/>
	<path id="Layer" class="s1" d="m26.3 0.3h0.3c5.3 0.3 24 9.9 28.6 7.8 4.6-2.1 4-5.9 7.6-5.6 3.6 0.4 3.1 6.8-0.4 9-3.4 2.2-5.8 5.6-1.4 14 3.9 7.6 6.2 17.1 0 19.1-0.7 0.2-1.4 0.2-2.1-0.1-0.7-0.2-1.2-0.7-1.6-1.4-3.2-6-14.8-25.3-35.1-33.9q-0.6-0.3-1-0.7-0.5-0.5-0.7-1.1-0.2-0.6-0.2-1.2 0-0.7 0.3-1.2c1-2.2 2.8-4.7 5.7-4.7z"/>
	<path id="Layer" class="s2" d="m18 44.4l-9.1-7.3q-0.2-0.1-0.3-0.3-0.1-0.2-0.1-0.5v-0.8q0-0.4 0.3-0.7 0.2-0.2 0.6-0.3l9.1-1q0.3-0.1 0.5 0 0.2 0.1 0.4 0.2 0.1 0.2 0.2 0.4 0.1 0.2 0.1 0.4v0.6q0 0.4-0.3 0.7-0.2 0.3-0.6 0.4l-4.5 0.3q-0.3 0-0.6 0.2-0.3 0.3-0.4 0.6-0.1 0.3 0.1 0.6 0.1 0.4 0.4 0.6l5.5 4.2q0.2 0.2 0.3 0.4 0.1 0.2 0.1 0.4 0 0.3-0.2 0.6-0.1 0.2-0.4 0.3-0.3 0.2-0.5 0.2-0.3-0.1-0.6-0.2"/>
	<path id="Layer" class="s2" d="m29.7 31.2c0.4 0.1 0.7 0.4 0.9 0.8 0.2 0.4 0.2 0.8 0.1 1.2l-5.9 14.9q0 0.4-0.2 0.7-0.2 0.3-0.5 0.5-0.4 0.2-0.8 0.3-0.3 0-0.7-0.1-0.4-0.2-0.6-0.5-0.3-0.3-0.4-0.6-0.1-0.4 0-0.8 0.1-0.4 0.3-0.7l5.9-14.8c0.1-0.4 0.4-0.7 0.8-0.8 0.3-0.2 0.7-0.2 1.1-0.1"/>
	<path id="Layer" class="s2" d="m38.5 44.8l-5.3-4.2q-0.2-0.1-0.4-0.3-0.1-0.2-0.1-0.5 0-0.3 0.2-0.6 0.1-0.2 0.4-0.4 0.3-0.1 0.6-0.1 0.3 0.1 0.6 0.3l9 7.1q0.2 0.2 0.3 0.4 0.1 0.2 0.1 0.5v0.7q0 0.4-0.3 0.7-0.3 0.4-0.7 0.4l-9 1.1q-0.2 0-0.4-0.1-0.3-0.1-0.4-0.2-0.2-0.2-0.3-0.4-0.1-0.2-0.1-0.4v-0.5q0-0.4 0.3-0.8 0.3-0.3 0.7-0.3l4.2-0.5q0.3 0 0.6-0.2 0.3-0.2 0.4-0.5 0.1-0.4 0-0.7-0.1-0.3-0.4-0.5z"/>
	<path id="Layer" class="s2" d="m102.9 25q-1.7 1.7-4 4.4-2.3 2.7-4.7 6c-1.7 2.1-3.3 4.3-4.9 6.5-1.5 2.3-3 4.5-4.2 6.6h18.3v6.8h-28.3v-4.7q1.5-2.7 3.6-6c1.4-2.1 2.9-4.3 4.4-6.5 1.5-2.3 3.1-4.4 4.6-6.4q2.4-3.1 4.4-5.6h-16.1v-6.7h26.9z"/>
	<path id="Layer" class="s2" d="m115.4 20.1q0 1-0.4 1.8-0.3 0.9-1 1.5c-0.9 0.8-2.1 1.3-3.3 1.3-1.2 0-2.4-0.5-3.3-1.3q-0.7-0.6-1-1.5-0.4-0.8-0.3-1.8-0.1-0.9 0.3-1.8 0.3-0.8 1-1.5c0.9-0.8 2.1-1.2 3.3-1.2 1.2 0 2.4 0.4 3.3 1.2q0.7 0.7 1 1.5 0.4 0.9 0.4 1.8z"/>
	<path id="Layer" class="s2" d="m106.9 28h7.7v27.4h-7.7z"/>
	<path id="Layer" fill-rule="evenodd" class="s2" d="m141.3 28.3q1.3 0.3 2.4 0.5v23.1q-0.1 6.6-3.5 9.9-3.3 3.3-10.4 3.3-2.5 0-5-0.4-2.3-0.5-4.6-1.2l1.4-6.6c2.6 1.1 5.4 1.7 8.3 1.7q1.3 0.1 2.5-0.3 1.2-0.4 2.2-1.2c0.9-1 1.4-2.4 1.4-3.7v-1q-1.2 0.5-2.6 0.8-1.4 0.3-2.9 0.3c-1.6 0.1-3.2-0.1-4.7-0.7-1.5-0.5-2.8-1.4-3.9-2.6-2.2-2.6-3.2-6-3-9.4-0.1-1.8 0.3-3.7 0.9-5.5 0.6-1.6 1.5-3 2.7-4.2 1.3-1.2 2.8-2.1 4.4-2.7 1.9-0.7 3.9-1 5.9-1q1.4 0 2.9 0.1 1.4 0.2 2.9 0.4 1.4 0.2 2.8 0.5m-5.5 5.3c-0.4-0.1-0.8-0.1-1.3-0.2-0.5-0.1-1.2-0.1-1.8-0.1-0.9 0-1.8 0.1-2.6 0.5-0.8 0.4-1.5 0.9-2 1.6-1.1 1.5-1.6 3.3-1.5 5.1 0 4.5 1.7 6.6 5.2 6.6 1.4 0 2.8-0.4 4-1z"/>
	<path id="Layer" class="s2" d="m149.3 29q2.5-0.7 5-1.1 3.3-0.5 6.6-0.5c2-0.1 3.9 0.3 5.8 0.9 1.4 0.5 2.7 1.4 3.6 2.6 1 1.1 1.6 2.5 2 3.9q0.6 2.6 0.5 5.1v15.5h-7.7v-14.6c0.1-1.8-0.2-3.6-1-5.3-0.4-0.5-1-1-1.6-1.2-0.7-0.3-1.4-0.4-2.1-0.3-0.5 0-1.1 0-1.7 0.1-0.7 0-1.2 0.1-1.7 0.1v21.2h-7.7z"/>
	<path id="Layer" class="s2" d="m201.4 54.4q-2.5 0.7-5.1 1.1-3.3 0.5-6.6 0.5c-1.9 0.1-3.9-0.2-5.7-0.9-1.5-0.6-2.7-1.5-3.7-2.7-0.9-1.1-1.6-2.5-1.9-4q-0.6-2.5-0.6-5.1v-15.3h7.7v14.3c-0.1 1.9 0.2 3.8 1 5.4 0.4 0.6 1 1.1 1.6 1.4 0.7 0.3 1.4 0.4 2.1 0.3 0.6 0 1.1 0 1.8-0.1 0.6-0.1 1.1-0.1 1.6-0.2v-21.1h7.7z"/>
	<path id="Layer" class="s2" d="m206.7 21.2l7.7-1.2v8h9.3v6.5h-9.2v9.6c-0.1 1.4 0.2 2.7 0.8 3.9 0.4 0.6 0.9 1 1.5 1.2 0.6 0.3 1.3 0.4 2 0.3q1.2 0 2.5-0.2 1.3-0.3 2.4-0.7l1.1 6q-1.5 0.7-3.1 1-2.1 0.5-4.2 0.4c-1.8 0.1-3.6-0.2-5.2-0.8-1.3-0.5-2.4-1.4-3.3-2.4-0.9-1.1-1.5-2.4-1.8-3.7q-0.6-2.4-0.5-4.9z"/>
	<path id="Layer" class="s2" d="m237.8 49.8q1.5 0.1 3-0.4 0.5-0.2 0.7-0.7 0.2-0.4 0.2-0.9 0-0.6-0.4-1-0.3-0.5-0.7-0.7-1.7-0.9-3.5-1.6-1.8-0.7-3.3-1.4-1.4-0.7-2.5-1.8c-0.7-0.7-1.3-1.5-1.7-2.4-0.4-1.1-0.6-2.2-0.5-3.4-0.1-1.1 0.1-2.3 0.6-3.4 0.5-1 1.3-1.9 2.2-2.7 2.3-1.6 5.1-2.3 7.8-2.2q2.4 0 4.8 0.4 1.9 0.4 3.7 1l-1.4 6q-1.4-0.4-2.9-0.8-1.8-0.4-3.6-0.4-3.6 0.1-3.6 2.1 0 0.4 0.1 0.8 0.3 0.4 0.7 0.7 0.6 0.4 1.2 0.7 0.8 0.4 2.1 0.9 2.2 0.8 4.3 2 1.4 0.7 2.5 1.9c0.7 0.7 1.1 1.5 1.4 2.3q0.4 1.5 0.4 3c0 1.2-0.2 2.4-0.7 3.5-0.6 1.1-1.4 2-2.4 2.7-2.6 1.5-5.5 2.2-8.5 2.1q-3.1 0-6.1-0.7-1.7-0.4-3.3-1l1.3-6.3q2 0.8 4.1 1.2 2 0.5 4.1 0.5"/>
	<path id="Layer" class="s3" d="m161 59.6v2.4h-4.5v12.4h-2.7v-12.4h-4.5v-2.4z"/>
	<path id="Layer" fill-rule="evenodd" class="s3" d="m161.2 68.9q0-1.3 0.5-2.6 0.4-1 1.2-1.8 0.7-0.7 1.6-1.1 0.9-0.4 1.9-0.4 1 0 2 0.3 0.9 0.4 1.6 1.2c1 1.2 1.4 2.7 1.3 4.2q0 0.2 0 0.5 0 0.2 0 0.5h-7.4q0 0.6 0.2 1.1 0.3 0.6 0.7 1c0.7 0.5 1.6 0.8 2.4 0.7q0.9 0 1.7-0.2 0.6-0.1 1.2-0.3l0.3 2.1q-0.2 0.1-0.6 0.2-0.4 0.1-0.8 0.2l-1 0.2q-0.6 0-1.2 0-1.3 0-2.5-0.5-1.1-0.4-1.8-1.2-0.7-0.8-1.1-1.8-0.3-1.2-0.3-2.3m7.5-1.2q0-0.5-0.2-1-0.1-0.5-0.4-0.8-0.3-0.4-0.7-0.6-0.5-0.2-1-0.2-0.5 0-1 0.2-0.5 0.3-0.8 0.6-0.3 0.4-0.5 0.9-0.1 0.4-0.2 0.9z"/>
	<path id="Layer" class="s3" d="m173.4 68.8q-0.1-1.1 0.3-2.3 0.4-1 1.1-1.8 0.7-0.8 1.7-1.3 1.1-0.4 2.3-0.4c1 0 2 0.2 3 0.6l-0.6 2.1q-0.5-0.2-1-0.4-0.6-0.1-1.2-0.1-0.7 0-1.3 0.2-0.6 0.3-1 0.8c-0.6 0.7-0.9 1.7-0.8 2.6 0 1 0.2 1.9 0.7 2.7q0.5 0.5 1.2 0.8 0.7 0.2 1.4 0.1 0.6 0.1 1.3-0.1 0.5-0.1 1.1-0.3l0.3 2.1q-0.6 0.3-1.2 0.4-0.9 0.2-1.8 0.2-1.3 0-2.5-0.5-1-0.4-1.8-1.2-0.7-0.8-1-1.8-0.3-1.2-0.3-2.4"/>
	<path id="Layer" class="s3" d="m184 74.4v-16.1l2.6-0.5v5.6q0.5-0.2 1-0.3 0.5-0.1 1.1-0.1 1.2 0 2.2 0.4 0.9 0.3 1.4 1 0.6 0.8 0.8 1.7 0.2 1 0.2 2.1v6.2h-2.6v-5.9q0.1-0.7-0.1-1.5 0-0.5-0.3-1-0.3-0.4-0.8-0.6-0.5-0.2-1.1-0.2-0.5 0-1 0.1l-0.8 0.2v8.9z"/>
	<path id="Layer" class="s3" d="m196.4 63.6q1-0.2 2-0.4 1.3-0.2 2.6-0.2 1.2 0 2.3 0.4 0.8 0.3 1.4 1 0.6 0.8 0.8 1.7 0.2 1 0.2 2v6.3h-2.6v-5.9q0-0.7-0.1-1.5-0.1-0.5-0.4-1-0.3-0.4-0.7-0.6-0.6-0.2-1.1-0.2-0.5 0-1.1 0l-0.8 0.1v9.1h-2.5z"/>
	<path id="Layer" fill-rule="evenodd" class="s3" d="m219 68.8q0 1.3-0.4 2.4-0.4 1.1-1.1 1.9-0.7 0.8-1.7 1.2c-1.4 0.6-2.9 0.6-4.3 0q-1-0.4-1.7-1.2-0.7-0.8-1-1.9-0.5-1.1-0.4-2.4-0.1-1.2 0.4-2.4 0.3-1 1.1-1.8 0.7-0.8 1.6-1.2 1-0.4 2.1-0.4 1.2 0 2.2 0.4 1 0.4 1.7 1.2 0.7 0.8 1.1 1.8 0.4 1.2 0.4 2.4zm-2.7 0c0.1-0.9-0.2-1.9-0.7-2.6q-0.4-0.5-0.9-0.8-0.5-0.2-1.1-0.2-0.6 0-1.1 0.2-0.6 0.3-0.9 0.8c-0.5 0.7-0.8 1.7-0.7 2.6-0.1 0.9 0.2 1.9 0.7 2.7q0.3 0.4 0.9 0.7 0.5 0.2 1.1 0.2 0.6 0 1.1-0.2 0.5-0.3 0.9-0.7c0.5-0.8 0.7-1.8 0.7-2.7z"/>
	<path id="Layer" class="s3" d="m225.5 74.6q-1 0-2-0.2-0.6-0.2-1.2-0.7-0.4-0.5-0.6-1.1-0.2-0.7-0.2-1.5v-12.8l2.6-0.5v12.8q0 0.4 0 0.8 0.1 0.3 0.3 0.6 0.2 0.2 0.5 0.3 0.4 0.1 0.8 0.2z"/>
	<path id="Layer" fill-rule="evenodd" class="s3" d="m231.7 63q1.1-0.1 2.1 0.3 0.8 0.3 1.4 0.9 0.5 0.6 0.7 1.4 0.3 0.9 0.3 1.8v6.8c-0.4 0-1 0.1-1.8 0.3q-1.4 0.2-2.7 0.1-1 0-1.9-0.1-0.7-0.2-1.4-0.7-0.6-0.4-0.9-1.1-0.3-0.8-0.3-1.6-0.1-0.8 0.3-1.6 0.4-0.7 1-1.1 0.7-0.5 1.5-0.6 0.9-0.2 1.8-0.2h0.9q0.5 0.1 1 0.2v-0.4q0-0.4-0.1-0.9-0.1-0.4-0.4-0.7-0.3-0.3-0.7-0.5-0.5-0.1-1.1-0.1-0.8 0-1.6 0.1-0.7 0.1-1.3 0.3l-0.3-2.1q0.7-0.2 1.4-0.3 1-0.2 2-0.2m0.3 9.6q0.9 0 1.8-0.1v-2.9l-0.7-0.1q-0.4-0.1-0.8 0-0.5 0-0.9 0-0.4 0-0.8 0.2-0.4 0.2-0.6 0.5-0.2 0.4-0.2 0.8 0 0.4 0.1 0.7 0.2 0.3 0.5 0.5c0.5 0.3 1.1 0.4 1.6 0.4z"/>
	<path id="Layer" fill-rule="evenodd" class="s3" d="m249.4 68.8q0 1.3-0.4 2.5-0.4 1-1.2 1.8-0.7 0.8-1.7 1.2-1.2 0.4-2.4 0.4-1.2 0-2.5-0.2-0.9-0.1-1.9-0.4v-15.8l2.6-0.4v5.8q0.6-0.3 1.1-0.4 0.7-0.2 1.5-0.2 1.1 0 2.1 0.4 0.9 0.4 1.5 1.2 0.6 0.8 1 1.8 0.3 1.2 0.3 2.4m-2.7 0q0 0 0 0 0 0 0 0zm-0.6-2.5q-0.4-0.5-0.9-0.8-0.6-0.2-1.2-0.2c-0.7 0-1.4 0.2-2.1 0.6v6.4l0.7 0.2q0.6 0 1.1 0 0.6 0 1.2-0.3 0.6-0.2 1-0.7c0.6-0.8 0.9-1.7 0.8-2.7 0.1-0.9-0.1-1.8-0.6-2.5z"/>
</svg>